<?xml version="1.0" encoding="UTF-8"?>
<svg width="261px" height="210px" viewBox="0 0 261 210" version="1.1" xmlns="http://www.w3.org/2000/svg" xmlns:xlink="http://www.w3.org/1999/xlink">
    <!-- Generator: Sketch 63 (92445) - https://sketch.com -->
    <title>Group 5 Copy 10</title>
    <desc>Created with Sketch.</desc>
    <g id="Page-1" stroke="none" stroke-width="1" fill="none" fill-rule="evenodd">
        <g id="Artboard">
            <g id="Group-5-Copy-10">
                <g id="1">
                    <g id="齿轮" transform="translate(0.000000, 25.000000)">
                        <path d="M30.690185,6.920105 L20.610885,16.999405 L30.690185,27.079555 C35.103385,21.098105 35.103385,12.901555 30.690185,6.920105" id="Fill-3" fill="#1085DE"></path>
                        <path d="M27.079385,3.31007 C21.097935,-1.10313 12.901385,-1.10313 6.919935,3.31007 L17.000085,13.38937 L27.079385,3.31007 Z" id="Fill-5" fill="#1085DE"></path>
                        <path d="M3.31007,6.920105 C-1.10313,12.901555 -1.10313,21.098105 3.31007,27.079555 L13.38937,16.999405 L3.31007,6.920105 Z" id="Fill-7" fill="#1085DE"></path>
                        <path d="M6.920105,30.690185 C12.901555,35.103385 21.098105,35.102535 27.079555,30.690185 L16.999405,20.610885 L6.920105,30.690185 Z" id="Fill-9" fill="#1085DE"></path>
                        <path d="M28.899745,16.999745 C28.899745,23.571945 23.571945,28.899745 16.999745,28.899745 C10.428395,28.899745 5.099745,23.571945 5.099745,16.999745 C5.099745,10.428395 10.428395,5.099745 16.999745,5.099745 C23.571945,5.099745 28.899745,10.428395 28.899745,16.999745" id="Fill-11" stroke="#02218D" fill="#1081D9"></path>
                        <path d="M26.349745,16.999745 C26.349745,22.163495 22.163495,26.349745 16.999745,26.349745 C11.835995,26.349745 7.649745,22.163495 7.649745,16.999745 C7.649745,11.835995 11.835995,7.649745 16.999745,7.649745 C22.163495,7.649745 26.349745,11.835995 26.349745,16.999745" id="Fill-13" fill="#0A39B3"></path>
                        <path d="M22.949745,16.999745 C22.949745,20.285845 20.285845,22.949745 16.999745,22.949745 C13.714495,22.949745 11.049745,20.285845 11.049745,16.999745 C11.049745,13.714495 13.714495,11.049745 16.999745,11.049745 C20.285845,11.049745 22.949745,13.714495 22.949745,16.999745" id="Fill-15" stroke="#84CEFD" fill="#6DBFF8"></path>
                    </g>
                    <g id="Group-2" transform="translate(225.000000, 0.000000)" stroke="#265C8A">
                        <polygon id="Stroke-3" stroke-opacity="0.600934222" fill-opacity="0.303185096" fill="#215DC4" points="36 26 10 0 5 0 31 26 31 50 36 50"></polygon>
                        <polygon id="Stroke2" stroke-opacity="0.602764423" fill-opacity="0.303185096" fill="#215DC4" points="31 26 5 0 -8.52679038e-13 0 26 26 26 50 31 50"></polygon>
                        <g id="Group" transform="translate(26.000000, 48.000000)" opacity="0.602329799">
                            <polyline id="路径-3" points="5.68434189e-13 162 10 154 10 0"></polyline>
                            <line x1="5" y1="158" x2="5" y2="1" id="路径-2"></line>
                        </g>
                    </g>
                    <polyline id="路径-1" stroke="#265C8A" points="23 60.4413152 23 210 251 210 251 49"></polyline>
                    <path d="M251,26 L225,0 L23,0 L23,19.676 C32.358,23.29 39,32.366 39,43 C39,45.431 38.646,47.777 38,50 L251,50 L251,26 Z" id="Stroke-1" stroke="#265C8A" fill-opacity="0.4" fill="#215DC4"></path>
                    <path d="M30.5,7.5 L27.5,7.5 L27.5,10.5 L30.5,10.5 L30.5,7.5 Z M37.5,7.5 L34.5,7.5 L34.5,10.5 L37.5,10.5 L37.5,7.5 Z M44.5,7.5 L41.5,7.5 L41.5,10.5 L44.5,10.5 L44.5,7.5 Z" id="形状结合" stroke="#186DC0" fill="#2891FF"></path>
                </g>
            </g>
        </g>
    </g>
</svg>